HIERARCHY
ROOT Hips
{
	OFFSET 49.817799 9.418861 54.572300
	CHANNELS 6 Xposition Yposition Zposition Xrotation Yrotation Zrotation
	JOINT spine
	{
		OFFSET 0.000000 -0.342408 5.954380
		CHANNELS 3 Xrotation Yrotation Zrotation
		JOINT spine1
		{
			OFFSET 0.000000 -0.000002 8.856018
			CHANNELS 3 Xrotation Yrotation Zrotation
			JOINT spine2
			{
				OFFSET 0.000000 -0.000001 8.485672
				CHANNELS 3 Xrotation Yrotation Zrotation
				JOINT Neck
				{
					OFFSET 0.000000 -1.038704 21.786301
					CHANNELS 3 Xrotation Yrotation Zrotation
					JOINT Head
					{
						OFFSET 0.000000 -0.000001 6.582199
						CHANNELS 3 Xrotation Yrotation Zrotation
						End Site
						{
							OFFSET 0.000000 5.254357 15.932602
						}
					}
				}
				JOINT RightShoulder
				{
					OFFSET -3.573071 0.497523 9.163857
					CHANNELS 3 Xrotation Yrotation Zrotation
					JOINT RightArm
					{
						OFFSET 0.000000 -0.000002 12.019203
						CHANNELS 3 Xrotation Yrotation Zrotation
						JOINT RightArmRoll
						{
							OFFSET 0.000000 -0.000001 6.067551
							CHANNELS 3 Xrotation Yrotation Zrotation
							JOINT RightForeArm
							{
								OFFSET 0.000000 -0.000003 17.672600
								CHANNELS 3 Xrotation Yrotation Zrotation
								JOINT RightForeArmRoll
								{
									OFFSET 0.000000 -0.000001 6.808731
									CHANNELS 3 Xrotation Yrotation Zrotation
									JOINT RightHand
									{
										OFFSET 0.000000 -0.000002 13.663605
										CHANNELS 3 Xrotation Yrotation Zrotation
										End Site
										{
											OFFSET 0.000000 0.000000 0.100006
										}
									}
								}
							}
						}
					}
				}
				JOINT LeftShoulder
				{
					OFFSET 3.573071 0.497523 9.163857
					CHANNELS 3 Xrotation Yrotation Zrotation
					JOINT LeftArm
					{
						OFFSET 0.000000 -0.000002 12.019203
						CHANNELS 3 Xrotation Yrotation Zrotation
						JOINT LeftArmRoll
						{
							OFFSET 0.000000 -0.000001 6.067551
							CHANNELS 3 Xrotation Yrotation Zrotation
							JOINT LeftForeArm
							{
								OFFSET 0.000000 -0.000003 17.672600
								CHANNELS 3 Xrotation Yrotation Zrotation
								JOINT LeftForeArmRoll
								{
									OFFSET 0.000000 -0.000001 6.808716
									CHANNELS 3 Xrotation Yrotation Zrotation
									JOINT LeftHand
									{
										OFFSET 0.000000 -0.000002 13.663605
										CHANNELS 3 Xrotation Yrotation Zrotation
										End Site
										{
											OFFSET 0.000000 0.000000 0.100006
										}
									}
								}
							}
						}
					}
				}
			}
		}
	}
	JOINT RightUpLeg
	{
		OFFSET -5.277740 0.811858 -0.967796
		CHANNELS 3 Xrotation Yrotation Zrotation
		JOINT RightUpLegRoll
		{
			OFFSET 0.000000 -0.000003 16.021397
			CHANNELS 3 Xrotation Yrotation Zrotation
			JOINT RightLeg
			{
				OFFSET 0.000000 0.000003 -19.840099
				CHANNELS 3 Xrotation Yrotation Zrotation
				JOINT RightLegRoll
				{
					OFFSET 0.000000 -0.000003 19.905003
					CHANNELS 3 Xrotation Yrotation Zrotation
					JOINT RightFoot
					{
						OFFSET 0.000000 -0.000003 16.567497
						CHANNELS 3 Xrotation Yrotation Zrotation
						JOINT RightToeBase
						{
							OFFSET 0.000000 -0.000002 13.849602
							CHANNELS 3 Xrotation Yrotation Zrotation
							End Site
							{
								OFFSET 0.005871 0.773116 6.707268
							}
						}
					}
				}
			}
		}
	}
	JOINT LeftUpLeg
	{
		OFFSET 5.277740 0.811858 -0.967796
		CHANNELS 3 Xrotation Yrotation Zrotation
		JOINT LeftUpLegRoll
		{
			OFFSET 0.000000 -0.000003 16.021503
			CHANNELS 3 Xrotation Yrotation Zrotation
			JOINT LeftLeg
			{
				OFFSET 0.000000 -0.000003 19.839996
				CHANNELS 3 Xrotation Yrotation Zrotation
				JOINT LeftLegRoll
				{
					OFFSET 0.000000 -0.000004 20.089005
					CHANNELS 3 Xrotation Yrotation Zrotation
					JOINT LeftFoot
					{
						OFFSET 0.000000 -0.000003 16.383499
						CHANNELS 3 Xrotation Yrotation Zrotation
						JOINT LeftToeBase
						{
							OFFSET 0.000000 -0.000002 13.849594
							CHANNELS 3 Xrotation Yrotation Zrotation
							End Site
							{
								OFFSET -0.026310 0.773115 6.707275
							}
						}
					}
				}
			}
		}
	}
}
MOTION
Frames: 6
Frame Time: 0.041667
49.368595 6.404251 57.732792 24.939099 5.192685 5.555646 -0.703510 -0.730297 0.010491 2.596020 -1.460440 0.019115 4.241303 -1.460153 0.036713 37.888463 -2.930025 -2.195389 6.157817 5.069961 -3.216696 6.072413 -77.300932 4.433423 -79.298237 -119.503640 -81.420602 0.000003 0.000000 -0.000002 30.137363 3.551531 -3.178566 -0.000003 0.000005 -3.000001 -5.000150 -7.999908 0.000017 -7.351142 58.094024 8.552863 -61.369011 135.943222 76.023270 0.000000 -0.000000 -0.000002 15.802046 -3.675221 2.616547 -0.000000 -0.000004 3.000000 -5.000175 7.999938 -0.000014 -104.267352 -180.799533 -1.597912 -179.999991 0.000004 -0.659995 103.830377 2.209150 -2.465971 0.000000 0.000002 1.730450 70.458169 7.016574 1.694274 25.456962 -7.355616 0.000011 -104.519059 185.199965 4.701358 -0.000002 -0.000005 -0.710884 -74.684068 -5.135760 -0.562701 0.000003 -0.000005 -1.508010 64.499006 -7.334850 -1.372429 25.456947 7.355613 -0.000000 
49.379696 6.411961 57.704296 24.826515 5.182447 5.573984 -0.707834 -0.731333 0.010071 2.587371 -1.462508 0.018322 4.232650 -1.462233 0.035874 37.843544 -2.888744 -2.211008 6.216235 4.988256 -3.218084 5.969117 -77.264384 4.328562 -79.138923 -119.493982 -81.326659 0.000003 -0.000000 -0.000001 30.174440 3.551161 -3.179700 -0.000001 0.000006 -2.999999 -5.000153 -7.999908 0.000020 -7.331936 58.124234 8.532206 -61.409322 136.064253 76.047565 0.000001 -0.000001 -0.000001 15.474533 -3.675818 2.603239 0.000002 -0.000004 3.000000 -5.000174 7.999938 -0.000012 -104.200232 -180.786870 -1.584405 -179.999991 0.000005 -0.663000 103.797073 2.208338 -2.465207 0.000000 0.000002 1.731399 70.456277 7.016658 1.694208 25.456962 -7.355614 0.000010 -104.435928 185.206330 4.712589 -0.000003 -0.000005 -0.712994 -74.693911 -5.144829 -0.571130 0.000003 -0.000004 -1.508240 64.494054 -7.335058 -1.371810 25.456950 7.355613 0.000001 
49.391098 6.436089 57.665195 24.711350 5.170585 5.590257 -0.711294 -0.731381 0.009628 2.580439 -1.462606 0.017526 4.225717 -1.462345 0.035010 37.797611 -2.859288 -2.224947 6.267750 4.921331 -3.220725 5.872210 -77.232781 4.229778 -78.987470 -119.489734 -81.237847 0.000003 -0.000000 -0.000001 30.196594 3.550979 -3.180349 -0.000001 0.000004 -2.999999 -5.000154 -7.999909 0.000018 -7.320741 58.143140 8.520230 -61.441226 136.194983 76.069784 0.000001 0.000000 0.000000 15.138095 -3.676316 2.589536 0.000002 -0.000003 3.000000 -5.000176 7.999941 -0.000013 -104.131575 -180.776693 -1.569895 -179.999991 0.000004 -0.664995 103.762738 2.208317 -2.464548 0.000000 0.000002 1.732359 70.453975 7.016770 1.693972 25.456964 -7.355616 0.000010 -104.349513 185.210046 4.722208 -0.000005 -0.000005 -0.715173 -74.704306 -5.152951 -0.578611 0.000003 -0.000004 -1.508610 64.489615 -7.335267 -1.371155 25.456950 7.355613 -0.000000 
49.369198 6.442719 57.678898 24.594634 5.157506 5.605061 -0.714248 -0.730649 0.009144 2.574535 -1.461144 0.016705 4.219813 -1.460881 0.034100 37.749141 -2.839193 -2.237456 6.315398 4.865448 -3.224210 5.776486 -77.204046 4.131804 -78.839064 -119.488955 -81.151465 0.000003 -0.000000 0.000000 30.211423 3.550876 -3.180770 -0.000003 0.000004 -2.999999 -5.000157 -7.999908 0.000018 -7.315093 58.148290 8.513800 -61.462407 136.335644 76.090063 0.000000 0.000001 -0.000000 14.790537 -3.676703 2.575427 0.000001 -0.000004 3.000002 -5.000172 7.999939 -0.000011 -104.062126 -180.768251 -1.554070 -179.999991 0.000005 -0.667999 103.727098 2.208796 -2.462899 0.000000 0.000002 1.733290 70.451448 7.016848 1.693846 25.456962 -7.355614 0.000010 -104.260461 185.212245 4.731442 -0.000003 -0.000005 -0.717388 -74.715030 -5.160456 -0.585595 0.000002 -0.000005 -1.509110 64.485503 -7.335481 -1.370582 25.456950 7.355613 0.000000 
49.367195 6.462398 57.639698 24.476481 5.143312 5.618630 -0.716759 -0.729212 0.008628 2.569501 -1.458273 0.015858 4.214783 -1.458017 0.033149 37.698481 -2.827305 -2.248743 6.359456 4.819352 -3.228485 5.682258 -77.178064 4.035008 -78.693663 -119.491345 -81.067304 0.000003 0.000000 -0.000000 30.218751 3.550882 -3.180950 -0.000001 0.000005 -3.000001 -5.000151 -7.999907 0.000021 -7.314337 58.142306 8.512322 -61.474551 136.485088 76.108115 -0.000000 0.000001 -0.000001 14.432955 -3.676976 2.560946 0.000001 -0.000005 3.000001 -5.000176 7.999940 -0.000014 -103.991987 -180.761257 -1.538030 -179.999991 0.000005 -0.671004 103.690345 2.209307 -2.462242 0.000000 0.000002 1.734210 70.448593 7.016925 1.693742 25.456959 -7.355616 0.000009 -104.169039 185.213133 4.739555 -0.000004 -0.000005 -0.719639 -74.726053 -5.167267 -0.591985 0.000003 -0.000005 -1.509719 64.481781 -7.335637 -1.370067 25.456948 7.355611 -0.000000 
49.362698 6.478681 57.622597 24.357180 5.128074 5.631136 -0.718908 -0.727150 0.008083 2.565195 -1.454142 0.014989 4.210478 -1.453907 0.032162 37.646189 -2.822451 -2.258998 6.400177 4.781771 -3.233447 5.589755 -77.154527 3.939665 -78.551574 -119.496741 -80.985532 0.000003 0.000000 -0.000001 30.218355 3.550983 -3.180884 -0.000001 0.000005 -3.000000 -5.000153 -7.999908 0.000016 -7.317726 58.127369 8.515094 -61.480411 136.641950 76.125306 0.000001 -0.000000 -0.000000 14.066456 -3.677147 2.546144 0.000003 -0.000004 2.999998 -5.000175 7.999940 -0.000014 -103.921492 -180.755492 -1.521867 -179.999991 0.000004 -0.673997 103.652588 2.210353 -2.459618 -0.000000 0.000002 1.735110 70.445430 7.017030 1.693559 25.456959 -7.355616 0.000010 -104.075609 185.212874 4.745809 -0.000003 -0.000005 -0.721924 -74.737323 -5.173492 -0.597966 0.000003 -0.000004 -1.510430 64.478284 -7.335784 -1.369736 25.456947 7.355613 -0.000000 
